<svg width="29" height="29" viewBox="0 0 29 29" fill="none" xmlns="http://www.w3.org/2000/svg">
<path d="M18.875 14.5C18.875 15.3653 18.6184 16.2112 18.1377 16.9306C17.6569 17.6501 16.9737 18.2108 16.1742 18.542C15.3748 18.8731 14.4951 18.9597 13.6465 18.7909C12.7978 18.6221 12.0183 18.2054 11.4064 17.5936C10.7946 16.9817 10.3779 16.2022 10.2091 15.3535C10.0403 14.5049 10.1269 13.6252 10.458 12.8258C10.7892 12.0263 11.3499 11.3431 12.0694 10.8623C12.7888 10.3816 13.6347 10.125 14.5 10.125C15.6592 10.1286 16.7699 10.5907 17.5896 11.4104C18.4093 12.2301 18.8714 13.3408 18.875 14.5ZM28.1719 8.48438V20.5156C28.1719 22.5462 27.3652 24.4936 25.9294 25.9294C24.4936 27.3652 22.5462 28.1719 20.5156 28.1719H8.48438C6.45381 28.1719 4.50641 27.3652 3.07059 25.9294C1.63476 24.4936 0.828125 22.5462 0.828125 20.5156V8.48438C0.828125 6.45381 1.63476 4.50641 3.07059 3.07059C4.50641 1.63476 6.45381 0.828125 8.48438 0.828125H20.5156C22.5462 0.828125 24.4936 1.63476 25.9294 3.07059C27.3652 4.50641 28.1719 6.45381 28.1719 8.48438ZM21.0625 14.5C21.0625 13.2021 20.6776 11.9333 19.9565 10.8541C19.2354 9.77487 18.2105 8.93374 17.0114 8.43704C15.8122 7.94034 14.4927 7.81038 13.2197 8.0636C11.9467 8.31681 10.7774 8.94183 9.85961 9.85961C8.94183 10.7774 8.31681 11.9467 8.0636 13.2197C7.81038 14.4927 7.94034 15.8122 8.43704 17.0114C8.93374 18.2105 9.77487 19.2354 10.8541 19.9565C11.9333 20.6776 13.2021 21.0625 14.5 21.0625C16.2405 21.0625 17.9097 20.3711 19.1404 19.1404C20.3711 17.9097 21.0625 16.2405 21.0625 14.5ZM23.25 7.39062C23.25 7.06614 23.1538 6.74894 22.9735 6.47914C22.7932 6.20934 22.537 5.99906 22.2372 5.87489C21.9374 5.75071 21.6076 5.71822 21.2893 5.78152C20.9711 5.84483 20.6787 6.00108 20.4493 6.23053C20.2198 6.45997 20.0636 6.7523 20.0003 7.07055C19.937 7.3888 19.9695 7.71868 20.0936 8.01847C20.2178 8.31825 20.4281 8.57448 20.6979 8.75476C20.9677 8.93503 21.2849 9.03125 21.6094 9.03125C22.0445 9.03125 22.4618 8.8584 22.7695 8.55072C23.0771 8.24305 23.25 7.82575 23.25 7.39062Z" fill="#463F66"/>
</svg>
