<svg width="137" height="87" viewBox="0 0 137 87" fill="none" xmlns="http://www.w3.org/2000/svg">
<path d="M136 1C130.209 7.22083 122.725 9.49935 114.459 11.6911C108.825 13.1848 111.438 18.2846 110.4 22.6089C109.31 27.1449 104.691 29.1311 100.151 29.4089C98.1447 29.5317 84.5198 27.1397 84.0756 28.5778C83.1429 31.5979 83.9149 35.6785 83.9149 38.8156C83.9149 42.6479 76.456 40.9036 74.0284 40.7422C68.5038 40.375 60.7037 37.7095 58.9976 44.2933C57.8451 48.7407 57.7254 60.0097 52.7281 62.5022C48.15 64.7857 40.5021 62.2014 36.0095 60.84C31.0637 59.3413 28.8812 57.6677 27.3286 62.88C26.8997 64.32 25.997 69.2271 23.792 69.4156C21.7199 69.5926 20.2178 66.6194 18.1253 67.1111C15.5092 67.7259 16.6756 77.2514 16.6383 78.8978C16.5323 83.5829 16.3205 85.2659 11.253 85.32C9.22096 85.3417 0 83.5862 0 86" stroke="#DB5F5F" stroke-linecap="round"/>
</svg>
